<svg version="1.1" xmlns="http://www.w3.org/2000/svg" viewBox="0 0 74.59341261169197 86.63423257324709" width="74.59341261169197" height="86.63423257324709">
  <!-- svg-source:excalidraw -->
  
  <defs>
    <style class="style-fonts">
      @font-face {
        font-family: "Virgil";
        src: url("https://excalidraw.com/Virgil.woff2");
      }
      @font-face {
        font-family: "Cascadia";
        src: url("https://excalidraw.com/Cascadia.woff2");
      }
      @font-face {
        font-family: "Assistant";
        src: url("https://excalidraw.com/Assistant-Regular.woff2");
      }
    </style>
    
  </defs>
  <rect x="0" y="0" width="74.59341261169197" height="86.63423257324709" fill="#ffffff"></rect><g stroke-linecap="round"><g transform="translate(27.971225775614585 31.542206599427203) rotate(0 9.817427702550845 6.2008284922937165)" fill-rule="evenodd"><path d="M1.1 -17.59 C1.1 -17.59, 1.1 -17.59, 1.1 -17.59 M1.1 -17.59 C1.1 -17.59, 1.1 -17.59, 1.1 -17.59 M0.18 -10.44 C3.38 -14.12, 6.58 -17.81, 8.71 -20.25 M0.18 -10.44 C3.3 -14.03, 6.42 -17.62, 8.71 -20.25 M0.58 -4.8 C4.16 -8.92, 7.75 -13.05, 13.7 -19.89 M0.58 -4.8 C3.34 -7.98, 6.11 -11.16, 13.7 -19.89 M-0.34 2.35 C0.24 1.69, 0.81 1.02, 1.63 0.09 M-0.34 2.35 C0.09 1.86, 0.51 1.37, 1.63 0.09 M7.53 -6.7 C10.19 -9.77, 12.86 -12.83, 16.72 -17.27 M7.53 -6.7 C10.01 -9.55, 12.48 -12.4, 16.72 -17.27 M-9.79 19.32 C-7.56 16.75, -5.33 14.19, -1.91 10.26 M-9.79 19.32 C-7.55 16.74, -5.31 14.17, -1.91 10.26 M11.86 -5.59 C13.95 -7.99, 16.05 -10.4, 19.08 -13.89 M11.86 -5.59 C14.25 -8.34, 16.64 -11.08, 19.08 -13.89 M-8.08 23.45 C-7.43 22.7, -6.77 21.94, -5.46 20.43 M-8.08 23.45 C-7.42 22.69, -6.75 21.92, -5.46 20.43 M14.88 -2.96 C16.21 -4.5, 17.55 -6.03, 20.13 -9 M14.88 -2.96 C16.94 -5.34, 19 -7.71, 20.13 -9 M-5.72 26.83 C-5.36 26.42, -5 26, -4.41 25.32 M-5.72 26.83 C-5.44 26.52, -5.17 26.2, -4.41 25.32 M15.93 1.92 C17.72 -0.13, 19.5 -2.18, 20.52 -3.36 M15.93 1.92 C16.85 0.87, 17.77 -0.19, 20.52 -3.36 M-3.35 30.21 C-2.74 29.5, -2.12 28.79, -1.39 27.94 M-3.35 30.21 C-2.7 29.46, -2.05 28.71, -1.39 27.94 M17.64 6.06 C18.69 4.85, 19.74 3.64, 22.23 0.78 M17.64 6.06 C19.23 4.23, 20.82 2.39, 22.23 0.78 M-0.99 33.59 C-0.19 32.67, 0.61 31.75, 1.63 30.57 M-0.99 33.59 C-0.46 32.98, 0.06 32.37, 1.63 30.57 M19.35 10.19 C21.1 8.18, 22.85 6.16, 24.59 4.15 M19.35 10.19 C21.32 7.93, 23.29 5.66, 24.59 4.15 M21.05 14.33 C22.57 12.58, 24.09 10.83, 26.96 7.53 M21.05 14.33 C22.82 12.29, 24.59 10.26, 26.96 7.53 M22.76 18.46 C25.07 15.8, 27.38 13.14, 28.66 11.67 M22.76 18.46 C24.39 16.58, 26.03 14.7, 28.66 11.67 M22.5 24.86 C25.32 21.6, 28.15 18.35, 30.37 15.8 M22.5 24.86 C24.88 22.12, 27.26 19.37, 30.37 15.8 M24.2 28.99 C26.48 26.38, 28.75 23.76, 31.42 20.69 M24.2 28.99 C27.02 25.76, 29.83 22.52, 31.42 20.69 M-0.45 34.05 C-0.45 34.05, -0.45 34.05, -0.45 34.05 M-0.45 34.05 C-0.45 34.05, -0.45 34.05, -0.45 34.05 M2.18 31.03 C-2.24 27.19, -6.65 23.35, -10.65 19.87 M2.18 31.03 C-1.7 27.66, -5.58 24.29, -10.65 19.87 M-5.01 19.48 C-5.93 18.68, -6.86 17.87, -8.78 16.2 M-5.01 19.48 C-6.24 18.41, -7.47 17.34, -8.78 16.2 M-3.89 15.15 C-5.2 14.02, -6.5 12.88, -7.67 11.87 M-3.89 15.15 C-5.22 14, -6.54 12.85, -7.67 11.87 M-2.02 11.47 C-3.19 10.46, -4.36 9.44, -5.04 8.85 M-2.02 11.47 C-3.21 10.44, -4.4 9.41, -5.04 8.85 M23.24 28.14 C23.24 28.14, 23.24 28.14, 23.24 28.14 M23.24 28.14 C23.24 28.14, 23.24 28.14, 23.24 28.14 M-0.91 7.14 C-1.8 6.37, -2.7 5.59, -3.17 5.18 M-0.91 7.14 C-1.5 6.63, -2.09 6.12, -3.17 5.18 M28.88 27.74 C27.08 26.17, 25.28 24.61, 22.09 21.84 M28.88 27.74 C26.57 25.73, 24.26 23.72, 22.09 21.84 M0.96 3.47 C0.6 3.15, 0.24 2.84, -0.55 2.16 M0.96 3.47 C0.51 3.08, 0.07 2.69, -0.55 2.16 M30.75 24.07 C27.58 21.31, 24.42 18.56, 21.7 16.19 M30.75 24.07 C27.16 20.94, 23.57 17.82, 21.7 16.19 M2.07 -0.86 C1.47 -1.39, 0.86 -1.92, -0.19 -2.83 M2.07 -0.86 C1.47 -1.39, 0.86 -1.92, -0.19 -2.83 M31.11 19.08 C26.77 15.3, 22.42 11.52, 18.28 7.93 M31.11 19.08 C28.33 16.66, 25.54 14.23, 18.28 7.93 M3.19 -5.19 C2.04 -6.19, 0.9 -7.19, -0.58 -8.47 M3.19 -5.19 C2.26 -6, 1.33 -6.81, -0.58 -8.47 M29.96 12.78 C25.21 8.64, 20.45 4.51, 15.63 0.32 M29.96 12.78 C24.51 8.04, 19.05 3.29, 15.63 0.32 M6.57 -7.56 C4.21 -9.6, 1.86 -11.65, -0.22 -13.46 M6.57 -7.56 C4.59 -9.28, 2.61 -11, -0.22 -13.46 M21.27 -0.08 C16.07 -4.59, 10.88 -9.11, 0.89 -17.79 M21.27 -0.08 C16.92 -3.86, 12.57 -7.64, 0.89 -17.79 M20.12 -6.38 C15.78 -10.15, 11.43 -13.93, 4.27 -20.15 M20.12 -6.38 C14.26 -11.47, 8.41 -16.56, 4.27 -20.15 M19.72 -12.02 C15.91 -15.33, 12.1 -18.64, 9.16 -21.21 M19.72 -12.02 C16.65 -14.69, 13.57 -17.37, 9.16 -21.21" stroke="#000" stroke-width="0.5" fill="none"></path><path d="M0 0 C-0.06 -1.6, -0.37 -7.2, -0.37 -9.59 C-0.37 -11.98, -0.27 -13, 0 -14.36 C0.27 -15.72, 0.75 -16.87, 1.25 -17.77 C1.76 -18.67, 2.27 -19.18, 3.04 -19.77 C3.8 -20.35, 4.8 -21, 5.83 -21.29 C6.87 -21.58, 8.09 -21.58, 9.24 -21.5 C10.4 -21.42, 11.74 -21.19, 12.76 -20.83 C13.78 -20.47, 14.64 -19.94, 15.37 -19.34 C16.1 -18.75, 16.6 -18.08, 17.16 -17.26 C17.71 -16.45, 18.31 -15.56, 18.7 -14.47 C19.09 -13.37, 19.37 -11.94, 19.5 -10.71 C19.63 -9.48, 19.47 -8.3, 19.5 -7.11 C19.54 -5.93, 19.54 -4.63, 19.71 -3.6 C19.89 -2.56, 20.06 -2, 20.57 -0.91 C21.08 0.19, 21.86 1.65, 22.78 2.96 C23.69 4.26, 25.15 5.75, 26.06 6.93 C26.96 8.1, 27.6 8.87, 28.21 9.99 C28.83 11.11, 29.29 12.26, 29.76 13.67 C30.22 15.07, 30.77 17.28, 31.01 18.44 C31.26 19.59, 31.22 19.78, 31.22 20.62 C31.22 21.46, 31.18 22.64, 31.01 23.47 C30.84 24.31, 30.58 24.96, 30.21 25.64 C29.84 26.31, 29.4 26.95, 28.77 27.5 C28.15 28.06, 27.14 28.7, 26.46 28.97 C25.77 29.23, 25.27 29.19, 24.64 29.07 C24.01 28.95, 23.08 28.76, 22.67 28.25 C22.26 27.74, 22.23 26.57, 22.19 26.01 C22.15 25.45, 22.58 25.1, 22.43 24.89 C22.29 24.68, 21.38 25.28, 21.31 24.76 C21.24 24.24, 21.89 22.83, 22.01 21.77 C22.12 20.72, 22.13 19.7, 22.01 18.44 C21.88 17.19, 21.62 15.55, 21.23 14.23 C20.85 12.91, 20.24 11.43, 19.71 10.53 C19.19 9.63, 18.4 9.44, 18.09 8.83 C17.77 8.21, 17.97 7.51, 17.82 6.85 C17.67 6.2, 17.55 5.72, 17.18 4.88 C16.82 4.04, 16.15 2.88, 15.64 1.82 C15.13 0.75, 14.33 -0.6, 14.12 -1.5 C13.91 -2.4, 14.52 -3.03, 14.39 -3.58 C14.25 -4.12, 13.95 -4.34, 13.32 -4.75 C12.69 -5.15, 11.39 -5.69, 10.63 -6 C9.87 -6.32, 9.48 -6.52, 8.74 -6.64 C8 -6.76, 7.08 -6.98, 6.21 -6.75 C5.34 -6.51, 4.32 -5.85, 3.52 -5.23 C2.71 -4.61, 1.66 -3.88, 1.36 -3.04 C1.06 -2.2, 1.63 -0.91, 1.71 -0.19 C1.78 0.53, 1.98 0.57, 1.78 1.27 C1.59 1.98, 1.07 3.13, 0.56 4.04 C0.05 4.96, -0.87 5.8, -1.25 6.76 C-1.63 7.72, -1.31 8.74, -1.71 9.8 C-2.1 10.86, -3.05 11.99, -3.6 13.13 C-4.14 14.27, -4.58 15.33, -4.96 16.64 C-5.33 17.96, -5.69 19.87, -5.83 21.03 C-5.98 22.2, -6.36 22.69, -5.83 23.64 C-5.31 24.59, -3.84 25.7, -2.69 26.73 C-1.54 27.77, 0.26 29.02, 1.07 29.85 C1.87 30.69, 2.08 31.16, 2.16 31.74 C2.24 32.33, 2.01 33.01, 1.55 33.37 C1.08 33.73, 0.14 34.53, -0.61 33.9 C-1.36 33.28, -2.22 30.84, -2.96 29.61 C-3.69 28.39, -4.4 27.37, -5.04 26.55 C-5.67 25.72, -6.17 25.18, -6.74 24.66 C-7.31 24.13, -7.91 23.57, -8.45 23.4 C-8.98 23.24, -9.64 23.5, -9.96 23.64 C-10.29 23.79, -10.15 24.56, -10.42 24.28 C-10.69 24, -11.58 22.73, -11.59 21.97 C-11.59 21.2, -10.91 20.62, -10.44 19.7 C-9.98 18.79, -9.33 17.54, -8.82 16.48 C-8.31 15.42, -7.8 14.48, -7.38 13.33 C-6.96 12.19, -6.95 10.91, -6.31 9.63 C-5.67 8.35, -4.52 6.91, -3.54 5.67 C-2.57 4.43, -1.05 3.13, -0.48 2.2 C0.09 1.28, -0.17 0.45, -0.11 0.1 M0 0 C-0.06 -1.6, -0.37 -7.2, -0.37 -9.59 C-0.37 -11.98, -0.27 -13, 0 -14.36 C0.27 -15.72, 0.75 -16.87, 1.25 -17.77 C1.76 -18.67, 2.27 -19.18, 3.04 -19.77 C3.8 -20.35, 4.8 -21, 5.83 -21.29 C6.87 -21.58, 8.09 -21.58, 9.24 -21.5 C10.4 -21.42, 11.74 -21.19, 12.76 -20.83 C13.78 -20.47, 14.64 -19.94, 15.37 -19.34 C16.1 -18.75, 16.6 -18.08, 17.16 -17.26 C17.71 -16.45, 18.31 -15.56, 18.7 -14.47 C19.09 -13.37, 19.37 -11.94, 19.5 -10.71 C19.63 -9.48, 19.47 -8.3, 19.5 -7.11 C19.54 -5.93, 19.54 -4.63, 19.71 -3.6 C19.89 -2.56, 20.06 -2, 20.57 -0.91 C21.08 0.19, 21.86 1.65, 22.78 2.96 C23.69 4.26, 25.15 5.75, 26.06 6.93 C26.96 8.1, 27.6 8.87, 28.21 9.99 C28.83 11.11, 29.29 12.26, 29.76 13.67 C30.22 15.07, 30.77 17.28, 31.01 18.44 C31.26 19.59, 31.22 19.78, 31.22 20.62 C31.22 21.46, 31.18 22.64, 31.01 23.47 C30.84 24.31, 30.58 24.96, 30.21 25.64 C29.84 26.31, 29.4 26.95, 28.77 27.5 C28.15 28.06, 27.14 28.7, 26.46 28.97 C25.77 29.23, 25.27 29.19, 24.64 29.07 C24.01 28.95, 23.08 28.76, 22.67 28.25 C22.26 27.74, 22.23 26.57, 22.19 26.01 C22.15 25.45, 22.58 25.1, 22.43 24.89 C22.29 24.68, 21.38 25.28, 21.31 24.76 C21.24 24.24, 21.89 22.83, 22.01 21.77 C22.12 20.72, 22.13 19.7, 22.01 18.44 C21.88 17.19, 21.62 15.55, 21.23 14.23 C20.85 12.91, 20.24 11.43, 19.71 10.53 C19.19 9.63, 18.4 9.44, 18.09 8.83 C17.77 8.21, 17.97 7.51, 17.82 6.85 C17.67 6.2, 17.55 5.72, 17.18 4.88 C16.82 4.04, 16.15 2.88, 15.64 1.82 C15.13 0.75, 14.33 -0.6, 14.12 -1.5 C13.91 -2.4, 14.52 -3.03, 14.39 -3.58 C14.25 -4.12, 13.95 -4.34, 13.32 -4.75 C12.69 -5.15, 11.39 -5.69, 10.63 -6 C9.87 -6.32, 9.48 -6.52, 8.74 -6.64 C8 -6.76, 7.08 -6.98, 6.21 -6.75 C5.34 -6.51, 4.32 -5.85, 3.52 -5.23 C2.71 -4.61, 1.66 -3.88, 1.36 -3.04 C1.06 -2.2, 1.63 -0.91, 1.71 -0.19 C1.78 0.53, 1.98 0.57, 1.78 1.27 C1.59 1.98, 1.07 3.13, 0.56 4.04 C0.05 4.96, -0.87 5.8, -1.25 6.76 C-1.63 7.72, -1.31 8.74, -1.71 9.8 C-2.1 10.86, -3.05 11.99, -3.6 13.13 C-4.14 14.27, -4.58 15.33, -4.96 16.64 C-5.33 17.96, -5.69 19.87, -5.83 21.03 C-5.98 22.2, -6.36 22.69, -5.83 23.64 C-5.31 24.59, -3.84 25.7, -2.69 26.73 C-1.54 27.77, 0.26 29.02, 1.07 29.85 C1.87 30.69, 2.08 31.16, 2.16 31.74 C2.24 32.33, 2.01 33.01, 1.55 33.37 C1.08 33.73, 0.14 34.53, -0.61 33.9 C-1.36 33.28, -2.22 30.84, -2.96 29.61 C-3.69 28.39, -4.4 27.37, -5.04 26.55 C-5.67 25.72, -6.17 25.18, -6.74 24.66 C-7.31 24.13, -7.91 23.57, -8.45 23.4 C-8.98 23.24, -9.64 23.5, -9.96 23.64 C-10.29 23.79, -10.15 24.56, -10.42 24.28 C-10.69 24, -11.58 22.73, -11.59 21.97 C-11.59 21.2, -10.91 20.62, -10.44 19.7 C-9.98 18.79, -9.33 17.54, -8.82 16.48 C-8.31 15.42, -7.8 14.48, -7.38 13.33 C-6.96 12.19, -6.95 10.91, -6.31 9.63 C-5.67 8.35, -4.52 6.91, -3.54 5.67 C-2.57 4.43, -1.05 3.13, -0.48 2.2 C0.09 1.28, -0.17 0.45, -0.11 0.1" stroke="#000" stroke-width="1" fill="none"></path></g></g><mask></mask><g stroke-linecap="round"><g transform="translate(29.52290570630248 29.461967055343194) rotate(0 6.787055863560568 -0.2989527555309479)" fill-rule="evenodd"><path d="M3 -4.01 C3 -4.01, 3 -4.01, 3 -4.01 M3 -4.01 C3 -4.01, 3 -4.01, 3 -4.01 M2.74 2.38 C4.99 -0.2, 7.23 -2.79, 8.65 -4.41 M2.74 2.38 C4.17 0.73, 5.61 -0.91, 8.65 -4.41 M5.76 5.01 C8.31 2.07, 10.86 -0.86, 12.32 -2.54 M5.76 5.01 C7.76 2.7, 9.77 0.4, 12.32 -2.54 M4.22 4.29 C4.22 4.29, 4.22 4.29, 4.22 4.29 M4.22 4.29 C4.22 4.29, 4.22 4.29, 4.22 4.29 M8.35 2.58 C6.67 1.11, 4.98 -0.35, 2.32 -2.67 M8.35 2.58 C5.97 0.51, 3.58 -1.57, 2.32 -2.67 M12.49 0.88 C10.69 -0.69, 8.89 -2.25, 5.7 -5.03 M12.49 0.88 C9.77 -1.48, 7.06 -3.84, 5.7 -5.03" stroke="#f5c021" stroke-width="0.5" fill="none"></path><path d="M0 0 C0.05 -0.19, 0.05 -0.72, 0.31 -1.13 C0.56 -1.54, 1.1 -1.99, 1.52 -2.44 C1.94 -2.89, 2.28 -3.43, 2.83 -3.81 C3.37 -4.2, 4.13 -4.54, 4.78 -4.73 C5.44 -4.93, 6.12 -5.12, 6.75 -5.01 C7.39 -4.9, 7.99 -4.39, 8.6 -4.09 C9.21 -3.79, 9.78 -3.45, 10.41 -3.22 C11.03 -2.98, 11.83 -2.9, 12.36 -2.68 C12.89 -2.46, 13.47 -2.5, 13.57 -1.91 C13.68 -1.32, 13.42 0.23, 12.99 0.86 C12.57 1.48, 11.61 1.51, 11.02 1.86 C10.43 2.21, 10.02 2.6, 9.44 2.96 C8.86 3.31, 8.15 3.73, 7.53 3.98 C6.91 4.22, 6.33 4.41, 5.72 4.41 C5.11 4.41, 4.42 4.31, 3.88 3.99 C3.33 3.68, 2.88 3.02, 2.46 2.52 C2.03 2.02, 1.5 1.24, 1.31 0.99 M0 0 C0.05 -0.19, 0.05 -0.72, 0.31 -1.13 C0.56 -1.54, 1.1 -1.99, 1.52 -2.44 C1.94 -2.89, 2.28 -3.43, 2.83 -3.81 C3.37 -4.2, 4.13 -4.54, 4.78 -4.73 C5.44 -4.93, 6.12 -5.12, 6.75 -5.01 C7.39 -4.9, 7.99 -4.39, 8.6 -4.09 C9.21 -3.79, 9.78 -3.45, 10.41 -3.22 C11.03 -2.98, 11.83 -2.9, 12.36 -2.68 C12.89 -2.46, 13.47 -2.5, 13.57 -1.91 C13.68 -1.32, 13.42 0.23, 12.99 0.86 C12.57 1.48, 11.61 1.51, 11.02 1.86 C10.43 2.21, 10.02 2.6, 9.44 2.96 C8.86 3.31, 8.15 3.73, 7.53 3.98 C6.91 4.22, 6.33 4.41, 5.72 4.41 C5.11 4.41, 4.42 4.31, 3.88 3.99 C3.33 3.68, 2.88 3.02, 2.46 2.52 C2.03 2.02, 1.5 1.24, 1.31 0.99" stroke="#f5c021" stroke-width="1" fill="none"></path></g></g><mask></mask><g stroke-linecap="round"><g transform="translate(30.417064721980296 26.272515389161214) rotate(0 1.126560313787877 -3.471209869480134)" fill-rule="evenodd"><path d="M0 0 C-0.1 -0.11, -0.39 -0.2, -0.58 -0.66 C-0.76 -1.12, -1 -2.08, -1.1 -2.75 C-1.19 -3.41, -1.25 -4.05, -1.15 -4.66 C-1.06 -5.27, -0.93 -6.02, -0.54 -6.41 C-0.14 -6.79, 0.69 -7.12, 1.23 -6.98 C1.76 -6.85, 2.33 -6.14, 2.69 -5.62 C3.05 -5.1, 3.41 -4.45, 3.41 -3.86 C3.4 -3.26, 3 -2.49, 2.66 -2.04 C2.32 -1.59, 1.79 -1.49, 1.38 -1.14 C0.97 -0.79, 0.38 -0.15, 0.18 0.04" stroke="none" stroke-width="0" fill="#fff" fill-rule="evenodd"></path><path d="M0 0 C-0.1 -0.11, -0.39 -0.2, -0.58 -0.66 C-0.76 -1.12, -1 -2.08, -1.1 -2.75 C-1.19 -3.41, -1.25 -4.05, -1.15 -4.66 C-1.06 -5.27, -0.93 -6.02, -0.54 -6.41 C-0.14 -6.79, 0.69 -7.12, 1.23 -6.98 C1.76 -6.85, 2.33 -6.14, 2.69 -5.62 C3.05 -5.1, 3.41 -4.45, 3.41 -3.86 C3.4 -3.26, 3 -2.49, 2.66 -2.04 C2.32 -1.59, 1.79 -1.49, 1.38 -1.14 C0.97 -0.79, 0.38 -0.15, 0.18 0.04 M0 0 C-0.1 -0.11, -0.39 -0.2, -0.58 -0.66 C-0.76 -1.12, -1 -2.08, -1.1 -2.75 C-1.19 -3.41, -1.25 -4.05, -1.15 -4.66 C-1.06 -5.27, -0.93 -6.02, -0.54 -6.41 C-0.14 -6.79, 0.69 -7.12, 1.23 -6.98 C1.76 -6.85, 2.33 -6.14, 2.69 -5.62 C3.05 -5.1, 3.41 -4.45, 3.41 -3.86 C3.4 -3.26, 3 -2.49, 2.66 -2.04 C2.32 -1.59, 1.79 -1.49, 1.38 -1.14 C0.97 -0.79, 0.38 -0.15, 0.18 0.04" stroke="#fff" stroke-width="1" fill="none"></path></g></g><mask></mask><g stroke-linecap="round"><g transform="translate(38.25553000304558 25.10309968629693) rotate(0 2.441600152541355 -1.9335645329540014)" fill-rule="evenodd"><path d="M0 0 C-0.08 -0.2, -0.38 -0.83, -0.49 -1.23 C-0.59 -1.63, -0.64 -2.01, -0.61 -2.41 C-0.58 -2.81, -0.5 -3.26, -0.3 -3.64 C-0.11 -4.02, 0.19 -4.42, 0.58 -4.72 C0.96 -5.02, 1.5 -5.39, 2 -5.44 C2.5 -5.5, 3.1 -5.33, 3.59 -5.03 C4.09 -4.74, 4.68 -4.15, 4.97 -3.7 C5.27 -3.25, 5.3 -2.8, 5.38 -2.32 C5.47 -1.84, 5.53 -1.28, 5.49 -0.83 C5.45 -0.39, 5.34 -0.05, 5.14 0.35 C4.95 0.75, 4.77 1.44, 4.32 1.58 C3.88 1.71, 3.17 1.42, 2.47 1.17 C1.77 0.91, 0.51 0.23, 0.12 0.05" stroke="none" stroke-width="0" fill="#fff" fill-rule="evenodd"></path><path d="M0 0 C-0.08 -0.2, -0.38 -0.83, -0.49 -1.23 C-0.59 -1.63, -0.64 -2.01, -0.61 -2.41 C-0.58 -2.81, -0.5 -3.26, -0.3 -3.64 C-0.11 -4.02, 0.19 -4.42, 0.58 -4.72 C0.96 -5.02, 1.5 -5.39, 2 -5.44 C2.5 -5.5, 3.1 -5.33, 3.59 -5.03 C4.09 -4.74, 4.68 -4.15, 4.97 -3.7 C5.27 -3.25, 5.3 -2.8, 5.38 -2.32 C5.47 -1.84, 5.53 -1.28, 5.49 -0.83 C5.45 -0.39, 5.34 -0.05, 5.14 0.35 C4.95 0.75, 4.77 1.44, 4.32 1.58 C3.88 1.71, 3.17 1.42, 2.47 1.17 C1.77 0.91, 0.51 0.23, 0.12 0.05 M0 0 C-0.08 -0.2, -0.38 -0.83, -0.49 -1.23 C-0.59 -1.63, -0.64 -2.01, -0.61 -2.41 C-0.58 -2.81, -0.5 -3.26, -0.3 -3.64 C-0.11 -4.02, 0.19 -4.42, 0.58 -4.72 C0.96 -5.02, 1.5 -5.39, 2 -5.44 C2.5 -5.5, 3.1 -5.33, 3.59 -5.03 C4.09 -4.74, 4.68 -4.15, 4.97 -3.7 C5.27 -3.25, 5.3 -2.8, 5.38 -2.32 C5.47 -1.84, 5.53 -1.28, 5.49 -0.83 C5.45 -0.39, 5.34 -0.05, 5.14 0.35 C4.95 0.75, 4.77 1.44, 4.32 1.58 C3.88 1.71, 3.17 1.42, 2.47 1.17 C1.77 0.91, 0.51 0.23, 0.12 0.05" stroke="#fff" stroke-width="1" fill="none"></path></g></g><mask></mask><g stroke-linecap="round"><g transform="translate(11.3788991006586 64.8630551320837) rotate(0 9.07327981862261 0.5936841181976291)" fill-rule="evenodd"><path d="M-0.6 -4.5 C-0.6 -4.5, -0.6 -4.5, -0.6 -4.5 M-0.6 -4.5 C-0.6 -4.5, -0.6 -4.5, -0.6 -4.5 M0.45 0.39 C3.34 -2.94, 6.23 -6.27, 8.97 -9.42 M0.45 0.39 C3.05 -2.61, 5.66 -5.61, 8.97 -9.42 M0.18 6.79 C3.41 3.08, 6.63 -0.63, 11.99 -6.8 M0.18 6.79 C4.47 1.85, 8.76 -3.08, 11.99 -6.8 M4.52 7.9 C7.9 4.01, 11.29 0.11, 14.36 -3.42 M4.52 7.9 C6.88 5.18, 9.25 2.45, 14.36 -3.42 M8.19 9.77 C11.56 5.9, 14.92 2.03, 16.72 -0.04 M8.19 9.77 C9.91 7.79, 11.63 5.81, 16.72 -0.04 M12.52 10.88 C13.99 9.19, 15.46 7.5, 19.08 3.34 M12.52 10.88 C14.5 8.61, 16.48 6.33, 19.08 3.34 M-0.44 6.6 C-0.44 6.6, -0.44 6.6, -0.44 6.6 M-0.44 6.6 C-0.44 6.6, -0.44 6.6, -0.44 6.6 M8.98 9.48 C6.49 7.31, 3.99 5.15, -0.08 1.61 M8.98 9.48 C6.09 6.97, 3.19 4.45, -0.08 1.61 M16.13 10.4 C10.76 5.73, 5.38 1.05, 0.28 -3.38 M16.13 10.4 C9.84 4.93, 3.55 -0.54, 0.28 -3.38 M19.51 8.04 C15.67 4.7, 11.83 1.36, 2.15 -7.05 M19.51 8.04 C14.74 3.89, 9.97 -0.26, 2.15 -7.05 M17.61 1.08 C14.97 -1.21, 12.34 -3.5, 6.29 -8.76 M17.61 1.08 C14.34 -1.76, 11.07 -4.6, 6.29 -8.76" stroke="#f5c021" stroke-width="0.5" fill="none"></path><path d="M0 0 C-0.03 -0.4, -0.11 -1.61, -0.16 -2.42 C-0.21 -3.23, -0.62 -4.23, -0.29 -4.86 C0.03 -5.49, 1.11 -6.02, 1.79 -6.21 C2.48 -6.39, 3.17 -5.82, 3.83 -5.98 C4.49 -6.15, 5.23 -6.71, 5.74 -7.19 C6.24 -7.67, 6.43 -8.43, 6.86 -8.85 C7.28 -9.27, 7.73 -9.76, 8.31 -9.7 C8.89 -9.64, 9.46 -9.46, 10.35 -8.49 C11.24 -7.52, 12.53 -5.54, 13.67 -3.88 C14.8 -2.21, 16.16 0.09, 17.14 1.5 C18.11 2.91, 19.12 3.79, 19.51 4.59 C19.91 5.4, 19.53 5.71, 19.51 6.34 C19.5 6.97, 19.61 7.81, 19.42 8.38 C19.23 8.95, 18.81 9.34, 18.37 9.75 C17.93 10.15, 17.5 10.61, 16.78 10.8 C16.06 10.99, 15 11.06, 14.07 10.89 C13.14 10.71, 12.49 10.11, 11.2 9.75 C9.92 9.38, 7.92 9.08, 6.36 8.69 C4.81 8.3, 3.02 7.77, 1.88 7.42 C0.75 7.06, 0.09 6.89, -0.45 6.59 C-0.99 6.28, -1.29 5.99, -1.37 5.6 C-1.45 5.21, -1.13 4.76, -0.92 4.23 C-0.71 3.7, -0.27 3.09, -0.09 2.42 C0.09 1.75, 0.1 0.59, 0.13 0.22 M0 0 C-0.03 -0.4, -0.11 -1.61, -0.16 -2.42 C-0.21 -3.23, -0.62 -4.23, -0.29 -4.86 C0.03 -5.49, 1.11 -6.02, 1.79 -6.21 C2.48 -6.39, 3.17 -5.82, 3.83 -5.98 C4.49 -6.15, 5.23 -6.71, 5.74 -7.19 C6.24 -7.67, 6.43 -8.43, 6.86 -8.85 C7.28 -9.27, 7.73 -9.76, 8.31 -9.7 C8.89 -9.64, 9.46 -9.46, 10.35 -8.49 C11.24 -7.52, 12.53 -5.54, 13.67 -3.88 C14.8 -2.21, 16.16 0.09, 17.14 1.5 C18.11 2.91, 19.12 3.79, 19.51 4.59 C19.91 5.4, 19.53 5.71, 19.51 6.34 C19.5 6.97, 19.61 7.81, 19.42 8.38 C19.23 8.95, 18.81 9.34, 18.37 9.75 C17.93 10.15, 17.5 10.61, 16.78 10.8 C16.06 10.99, 15 11.06, 14.07 10.89 C13.14 10.71, 12.49 10.11, 11.2 9.75 C9.92 9.38, 7.92 9.08, 6.36 8.69 C4.81 8.3, 3.02 7.77, 1.88 7.42 C0.75 7.06, 0.09 6.89, -0.45 6.59 C-0.99 6.28, -1.29 5.99, -1.37 5.6 C-1.45 5.21, -1.13 4.76, -0.92 4.23 C-0.71 3.7, -0.27 3.09, -0.09 2.42 C0.09 1.75, 0.1 0.59, 0.13 0.22" stroke="#f5c021" stroke-width="1" fill="none"></path></g></g><mask></mask><g stroke-linecap="round"><g transform="translate(46.81104335719374 58.32193475344141) rotate(0 8.199555368976576 8.479596469576236)" fill-rule="evenodd"><path d="M0.25 -1.11 C0.25 -1.11, 0.25 -1.11, 0.25 -1.11 M0.25 -1.11 C0.25 -1.11, 0.25 -1.11, 0.25 -1.11 M0.64 4.53 C2.43 2.48, 4.21 0.42, 5.23 -0.75 M0.64 4.53 C2.04 2.92, 3.45 1.3, 5.23 -0.75 M-0.93 12.44 C2.45 8.55, 5.83 4.66, 10.22 -0.39 M-0.93 12.44 C1.34 9.83, 3.61 7.21, 10.22 -0.39 M0.12 17.33 C3.79 13.1, 7.46 8.88, 13.24 2.23 M0.12 17.33 C5.31 11.35, 10.5 5.38, 13.24 2.23 M4.45 18.44 C7.4 15.05, 10.35 11.65, 15.6 5.61 M4.45 18.44 C8.91 13.31, 13.36 8.19, 15.6 5.61 M0.53 17.68 C0.53 17.68, 0.53 17.68, 0.53 17.68 M0.53 17.68 C0.53 17.68, 0.53 17.68, 0.53 17.68 M6.17 17.29 C4.43 15.77, 2.68 14.25, -0.62 11.38 M6.17 17.29 C4.53 15.86, 2.89 14.43, -0.62 11.38 M9.55 14.93 C6.07 11.9, 2.59 8.87, -0.26 6.4 M9.55 14.93 C6.52 12.29, 3.48 9.65, -0.26 6.4 M12.93 12.56 C7.82 8.12, 2.71 3.68, 0.1 1.41 M12.93 12.56 C7.93 8.22, 2.93 3.87, 0.1 1.41 M16.31 10.2 C13.58 7.83, 10.86 5.47, 2.72 -1.61 M16.31 10.2 C13.23 7.53, 10.16 4.86, 2.72 -1.61 M13.65 2.59 C12.77 1.82, 11.89 1.06, 9.88 -0.69 M13.65 2.59 C12.7 1.76, 11.75 0.94, 9.88 -0.69" stroke="#f5c021" stroke-width="0.5" fill="none"></path><path d="M0 0 C0.07 -0.22, -0.12 -1.17, 0.45 -1.34 C1.02 -1.52, 1.58 -1.18, 3.41 -1.05 C5.23 -0.93, 9.79 -0.92, 11.4 -0.6 C13.01 -0.29, 12.77 0.19, 13.06 0.83 C13.35 1.46, 12.78 2.41, 13.15 3.2 C13.52 4, 14.56 4.92, 15.26 5.6 C15.95 6.28, 16.91 6.68, 17.32 7.26 C17.72 7.84, 17.9 8.49, 17.7 9.07 C17.5 9.66, 16.87 10.19, 16.11 10.75 C15.35 11.31, 14.06 11.93, 13.15 12.43 C12.24 12.94, 11.42 13.27, 10.66 13.78 C9.91 14.29, 9.38 14.84, 8.63 15.5 C7.87 16.17, 7.06 17.3, 6.14 17.77 C5.22 18.23, 4.08 18.35, 3.11 18.3 C2.14 18.26, 1.01 17.92, 0.31 17.5 C-0.38 17.07, -0.78 16.58, -1.05 15.75 C-1.32 14.92, -1.41 13.64, -1.3 12.5 C-1.19 11.37, -0.63 10.28, -0.4 8.94 C-0.18 7.6, 0.01 5.94, 0.07 4.48 C0.12 3.02, -0.04 0.88, -0.07 0.16 M0 0 C0.07 -0.22, -0.12 -1.17, 0.45 -1.34 C1.02 -1.52, 1.58 -1.18, 3.41 -1.05 C5.23 -0.93, 9.79 -0.92, 11.4 -0.6 C13.01 -0.29, 12.77 0.19, 13.06 0.83 C13.35 1.46, 12.78 2.41, 13.15 3.2 C13.52 4, 14.56 4.92, 15.26 5.6 C15.95 6.28, 16.91 6.68, 17.32 7.26 C17.72 7.84, 17.9 8.49, 17.7 9.07 C17.5 9.66, 16.87 10.19, 16.11 10.75 C15.35 11.31, 14.06 11.93, 13.15 12.43 C12.24 12.94, 11.42 13.27, 10.66 13.78 C9.91 14.29, 9.38 14.84, 8.63 15.5 C7.87 16.17, 7.06 17.3, 6.14 17.77 C5.22 18.23, 4.08 18.35, 3.11 18.3 C2.14 18.26, 1.01 17.92, 0.31 17.5 C-0.38 17.07, -0.78 16.58, -1.05 15.75 C-1.32 14.92, -1.41 13.64, -1.3 12.5 C-1.19 11.37, -0.63 10.28, -0.4 8.94 C-0.18 7.6, 0.01 5.94, 0.07 4.48 C0.12 3.02, -0.04 0.88, -0.07 0.16" stroke="#f5c021" stroke-width="1" fill="none"></path></g></g><mask></mask><g stroke-linecap="round" transform="translate(29.91175276809031 22.06637652472122) rotate(0 1.2732455279628994 1.9406735744701962)"><path d="M0.48 0.42 C0.48 0.42, 0.48 0.42, 0.48 0.42 M0.48 0.42 C0.48 0.42, 0.48 0.42, 0.48 0.42 M0.75 3.72 C0.75 3.72, 0.75 3.72, 0.75 3.72 M0.75 3.72 C0.75 3.72, 0.75 3.72, 0.75 3.72" stroke="#000" stroke-width="0.5" fill="none"></path><path d="M2.55 1.94 C2.55 2.05, 2.54 2.17, 2.53 2.28 C2.51 2.39, 2.49 2.5, 2.47 2.6 C2.44 2.71, 2.41 2.81, 2.38 2.91 C2.34 3.01, 2.3 3.1, 2.25 3.19 C2.2 3.27, 2.15 3.36, 2.09 3.43 C2.04 3.5, 1.97 3.57, 1.91 3.62 C1.85 3.68, 1.78 3.73, 1.71 3.76 C1.64 3.8, 1.57 3.83, 1.49 3.85 C1.42 3.87, 1.35 3.88, 1.27 3.88 C1.2 3.88, 1.12 3.87, 1.05 3.85 C0.98 3.83, 0.91 3.8, 0.84 3.76 C0.77 3.73, 0.7 3.68, 0.64 3.62 C0.57 3.57, 0.51 3.5, 0.45 3.43 C0.4 3.36, 0.35 3.27, 0.3 3.19 C0.25 3.1, 0.21 3.01, 0.17 2.91 C0.13 2.81, 0.1 2.71, 0.08 2.6 C0.05 2.5, 0.03 2.39, 0.02 2.28 C0.01 2.17, 0 2.05, 0 1.94 C0 1.83, 0.01 1.71, 0.02 1.6 C0.03 1.49, 0.05 1.38, 0.08 1.28 C0.1 1.17, 0.13 1.07, 0.17 0.97 C0.21 0.87, 0.25 0.78, 0.3 0.69 C0.35 0.61, 0.4 0.53, 0.45 0.45 C0.51 0.38, 0.57 0.32, 0.64 0.26 C0.7 0.2, 0.77 0.16, 0.84 0.12 C0.91 0.08, 0.98 0.05, 1.05 0.03 C1.12 0.01, 1.2 0, 1.27 0 C1.35 0, 1.42 0.01, 1.49 0.03 C1.57 0.05, 1.64 0.08, 1.71 0.12 C1.78 0.16, 1.85 0.2, 1.91 0.26 C1.97 0.32, 2.04 0.38, 2.09 0.45 C2.15 0.53, 2.2 0.61, 2.25 0.69 C2.3 0.78, 2.34 0.87, 2.38 0.97 C2.41 1.07, 2.44 1.17, 2.47 1.28 C2.49 1.38, 2.51 1.49, 2.53 1.6 C2.54 1.71, 2.54 1.88, 2.55 1.94 C2.55 2, 2.55 1.88, 2.55 1.94" stroke="#000" stroke-width="1" fill="none"></path></g><g stroke-linecap="round" transform="translate(37.77712852083596 21.922624180043982) rotate(0 1.7250450574547358 2.0228188793727497)"><path d="M0.59 0.51 C0.59 0.51, 0.59 0.51, 0.59 0.51 M0.59 0.51 C0.59 0.51, 0.59 0.51, 0.59 0.51 M0.76 3.7 C0.76 3.7, 0.76 3.7, 0.76 3.7 M0.76 3.7 C0.76 3.7, 0.76 3.7, 0.76 3.7" stroke="#000" stroke-width="0.5" fill="none"></path><path d="M3.45 2.02 C3.45 2.14, 3.44 2.26, 3.42 2.37 C3.41 2.49, 3.38 2.6, 3.35 2.71 C3.31 2.82, 3.27 2.93, 3.22 3.03 C3.17 3.14, 3.11 3.23, 3.05 3.32 C2.98 3.41, 2.91 3.5, 2.83 3.57 C2.76 3.65, 2.67 3.72, 2.59 3.77 C2.5 3.83, 2.41 3.88, 2.32 3.92 C2.22 3.96, 2.12 3.99, 2.02 4.01 C1.93 4.04, 1.82 4.05, 1.73 4.05 C1.63 4.05, 1.52 4.04, 1.43 4.01 C1.33 3.99, 1.23 3.96, 1.14 3.92 C1.04 3.88, 0.95 3.83, 0.86 3.77 C0.78 3.72, 0.69 3.65, 0.62 3.57 C0.54 3.5, 0.47 3.41, 0.4 3.32 C0.34 3.23, 0.28 3.14, 0.23 3.03 C0.18 2.93, 0.14 2.82, 0.1 2.71 C0.07 2.6, 0.04 2.49, 0.03 2.37 C0.01 2.26, 0 2.14, 0 2.02 C0 1.91, 0.01 1.79, 0.03 1.67 C0.04 1.56, 0.07 1.44, 0.1 1.33 C0.14 1.22, 0.18 1.11, 0.23 1.01 C0.28 0.91, 0.34 0.81, 0.4 0.72 C0.47 0.63, 0.54 0.55, 0.62 0.47 C0.69 0.4, 0.78 0.33, 0.86 0.27 C0.95 0.21, 1.04 0.16, 1.14 0.12 C1.23 0.08, 1.33 0.05, 1.43 0.03 C1.52 0.01, 1.63 0, 1.73 0 C1.82 0, 1.93 0.01, 2.02 0.03 C2.12 0.05, 2.22 0.08, 2.32 0.12 C2.41 0.16, 2.5 0.21, 2.59 0.27 C2.67 0.33, 2.76 0.4, 2.83 0.47 C2.91 0.55, 2.98 0.63, 3.05 0.72 C3.11 0.81, 3.17 0.91, 3.22 1.01 C3.27 1.11, 3.31 1.22, 3.35 1.33 C3.38 1.44, 3.41 1.56, 3.42 1.67 C3.44 1.79, 3.45 1.96, 3.45 2.02 C3.45 2.08, 3.45 1.96, 3.45 2.02" stroke="#000" stroke-width="1" fill="none"></path></g><g stroke-linecap="round"><g transform="translate(29.55826665320251 68.116068370482) rotate(0 8.794981204869941 0.7228732307137591)" fill-rule="evenodd"><path d="M0 0 C0 0, 0 0, 0 0 M0 0 C0 0, 0 0, 0 0 M1.71 4.13 C2.31 3.44, 2.91 2.75, 4.33 1.11 M1.71 4.13 C2.45 3.28, 3.2 2.42, 4.33 1.11 M6.04 5.25 C6.7 4.49, 7.36 3.72, 9.32 1.47 M6.04 5.25 C7.16 3.96, 8.27 2.68, 9.32 1.47 M11.02 5.61 C13.42 2.85, 15.82 0.09, 17.59 -1.94 M11.02 5.61 C13.48 2.79, 15.93 -0.03, 17.59 -1.94 M16.01 5.97 C16.22 5.73, 16.43 5.49, 16.67 5.21 M16.01 5.97 C16.22 5.73, 16.42 5.5, 16.67 5.21 M1.23 4.68 C1.23 4.68, 1.23 4.68, 1.23 4.68 M1.23 4.68 C1.23 4.68, 1.23 4.68, 1.23 4.68 M6.87 4.29 C5.58 3.16, 4.28 2.03, 3.1 1.01 M6.87 4.29 C5.92 3.46, 4.97 2.63, 3.1 1.01 M13.27 4.55 C12.34 3.74, 11.4 2.92, 9.5 1.27 M13.27 4.55 C12.05 3.49, 10.84 2.43, 9.5 1.27 M16.65 2.19 C15.55 1.23, 14.46 0.28, 13.63 -0.44 M16.65 2.19 C15.53 1.21, 14.41 0.24, 13.63 -0.44 M17.76 -2.14 C17.17 -2.66, 16.58 -3.17, 16.25 -3.46 M17.76 -2.14 C17.21 -2.62, 16.66 -3.1, 16.25 -3.46" stroke="#000" stroke-width="0.5" fill="none"></path><path d="M0 0 C0.47 0.21, 1.76 0.96, 2.83 1.25 C3.89 1.53, 5.32 1.68, 6.37 1.71 C7.43 1.73, 8.16 1.68, 9.16 1.4 C10.15 1.12, 11.46 0.51, 12.33 0.04 C13.21 -0.42, 13.54 -0.68, 14.41 -1.4 C15.29 -2.12, 17.13 -4.36, 17.59 -4.29 C18.05 -4.22, 17.35 -1.95, 17.15 -0.99 C16.96 -0.03, 16.55 0.7, 16.43 1.47 C16.31 2.23, 16.41 2.88, 16.43 3.59 C16.45 4.3, 16.78 5.45, 16.54 5.74 C16.3 6.02, 15.93 5.48, 15.01 5.3 C14.08 5.12, 12.29 4.81, 11 4.67 C9.7 4.52, 8.43 4.47, 7.25 4.42 C6.07 4.38, 4.91 4.37, 3.92 4.42 C2.94 4.48, 1.78 5.09, 1.34 4.78 C0.89 4.46, 1.3 3.07, 1.25 2.52 C1.2 1.97, 1.26 1.85, 1.05 1.47 C0.84 1.08, 0.18 0.43, 0 0.22 M0 0 C0.47 0.21, 1.76 0.96, 2.83 1.25 C3.89 1.53, 5.32 1.68, 6.37 1.71 C7.43 1.73, 8.16 1.68, 9.16 1.4 C10.15 1.12, 11.46 0.51, 12.33 0.04 C13.21 -0.42, 13.54 -0.68, 14.41 -1.4 C15.29 -2.12, 17.13 -4.36, 17.59 -4.29 C18.05 -4.22, 17.35 -1.95, 17.15 -0.99 C16.96 -0.03, 16.55 0.7, 16.43 1.47 C16.31 2.23, 16.41 2.88, 16.43 3.59 C16.45 4.3, 16.78 5.45, 16.54 5.74 C16.3 6.02, 15.93 5.48, 15.01 5.3 C14.08 5.12, 12.29 4.81, 11 4.67 C9.7 4.52, 8.43 4.47, 7.25 4.42 C6.07 4.38, 4.91 4.37, 3.92 4.42 C2.94 4.48, 1.78 5.09, 1.34 4.78 C0.89 4.46, 1.3 3.07, 1.25 2.52 C1.2 1.97, 1.26 1.85, 1.05 1.47 C0.84 1.08, 0.18 0.43, 0 0.22" stroke="#000" stroke-width="1" fill="none"></path></g></g><mask></mask></svg>